# xmcd CD database file
#
# Track frame offsets:
#	150
#	26443
#	47350
#	79548
#	83277
#	105160
#	123571
#	146917
#	173427
#	192784
#
# Disc length: 2899 seconds
#
# Revision: 0
# Processed by: cddbd v1.5.2PL0 Copyright (c) Steve Scherf et al.
# Submitted via: CDex 1.51
#
DISCID=660b510a
DTITLE=David Lanz and Gary Stroutsos - Living Temples
DYEAR=2008
DGENRE=New Age
TTITLE0=Sun Chasers
TTITLE1=Rio San Rafael
TTITLE2=Desert Star
TTITLE3=Invocation
TTITLE4=Rain Dancer
TTITLE5=Sea Of Mescalero
TTITLE6=Temple Dance
TTITLE7=Ancient Voices
TTITLE8=Walk In Beauty
TTITLE9=Living Temples
EXTD=YEAR: 2008
EXTT0=
EXTT1=
EXTT2=
EXTT3=
EXTT4=
EXTT5=
EXTT6=
EXTT7=
EXTT8=
EXTT9=
PLAYORDER=
